<svg width="15" height="15" viewBox="0 0 15 15" fill="none" xmlns="http://www.w3.org/2000/svg">
<path d="M13.6224 4.71623L6.12244 12.2162C6.05711 12.2818 5.97949 12.3338 5.89403 12.3693C5.80856 12.4048 5.71693 12.423 5.62439 12.423C5.53185 12.423 5.44022 12.4048 5.35475 12.3693C5.26928 12.3338 5.19166 12.2818 5.12634 12.2162L1.84509 8.93498C1.77969 8.86958 1.72781 8.79193 1.69241 8.70648C1.65701 8.62102 1.63879 8.52943 1.63879 8.43694C1.63879 8.34444 1.65701 8.25285 1.69241 8.1674C1.72781 8.08194 1.77969 8.0043 1.84509 7.93889C1.9105 7.87349 1.98814 7.8216 2.0736 7.78621C2.15905 7.75081 2.25064 7.73259 2.34314 7.73259C2.43563 7.73259 2.52722 7.75081 2.61268 7.78621C2.69813 7.8216 2.77578 7.87349 2.84119 7.93889L5.62497 10.7227L12.6275 3.72131C12.7596 3.58922 12.9388 3.51501 13.1256 3.51501C13.3124 3.51501 13.4915 3.58922 13.6236 3.72131C13.7557 3.8534 13.8299 4.03256 13.8299 4.21936C13.8299 4.40616 13.7557 4.58532 13.6236 4.71741L13.6224 4.71623Z" fill="white"/>
</svg>
