<svg width="50" height="50" viewBox="0 0 50 50" fill="none" xmlns="http://www.w3.org/2000/svg">
<path d="M26.5625 10.4167C26.5625 10.8311 26.3979 11.2285 26.1049 11.5215C25.8118 11.8146 25.4144 11.9792 25 11.9792H12.5C12.3619 11.9792 12.2294 12.034 12.1317 12.1317C12.034 12.2294 11.9792 12.3619 11.9792 12.5L11.9792 37.5C11.9792 37.6381 12.034 37.7706 12.1317 37.8683C12.2294 37.966 12.3619 38.0208 12.5 38.0208H25C25.4144 38.0208 25.8118 38.1855 26.1049 38.4785C26.3979 38.7715 26.5625 39.1689 26.5625 39.5833C26.5625 39.9977 26.3979 40.3952 26.1049 40.6882C25.8118 40.9812 25.4144 41.1458 25 41.1458H12.5C10.4875 41.1458 8.85417 39.5125 8.85417 37.5L8.85417 12.5C8.85417 11.5331 9.23828 10.6057 9.92201 9.92202C10.6057 9.23829 11.5331 8.85417 12.5 8.85417H25C25.4144 8.85417 25.8118 9.01879 26.1049 9.31182C26.3979 9.60484 26.5625 10.0023 26.5625 10.4167Z" fill="white"/>
<path d="M17.475 22.6771C17.475 22.1245 17.6945 21.5946 18.0852 21.2039C18.4759 20.8132 19.0058 20.5937 19.5583 20.5937L29.675 20.5937C29.7229 19.8521 29.7833 19.1146 29.8542 18.3729L29.9167 17.7375C29.9399 17.498 30.0206 17.2677 30.1519 17.066C30.2832 16.8644 30.4612 16.6974 30.6707 16.5792C30.8803 16.4611 31.1153 16.3952 31.3558 16.3872C31.5963 16.3792 31.8351 16.4293 32.0521 16.5333C35.8605 18.3586 39.3081 20.8562 42.2292 23.9062L42.2917 23.9708C42.5598 24.2505 42.7095 24.623 42.7095 25.0104C42.7095 25.3979 42.5598 25.7703 42.2917 26.05L42.2292 26.1146C39.3081 29.1646 35.8605 31.6623 32.0521 33.4875C31.8351 33.5915 31.5963 33.6416 31.3558 33.6336C31.1153 33.6256 30.8803 33.5598 30.6707 33.4416C30.4612 33.3234 30.2832 33.1564 30.1519 32.9548C30.0206 32.7531 29.9399 32.5228 29.9167 32.2833L29.8542 31.6479C29.7833 30.9083 29.7229 30.1687 29.675 29.4271L19.5583 29.4271C19.0058 29.4271 18.4759 29.2076 18.0852 28.8169C17.6945 28.4262 17.475 27.8963 17.475 27.3437V22.6771Z" fill="white"/>
</svg>
