<svg width="64" height="64" viewBox="0 0 64 64" fill="none" xmlns="http://www.w3.org/2000/svg">
<path d="M51.574 12.752L49.974 11.956C48.774 11.36 47.774 10.764 46.974 9.768L43.972 6.786C41.572 4.596 38.17 3.802 35.168 4.796C33.168 5.392 30.968 5.392 28.968 4.796C26.166 3.404 22.966 4 20.764 5.99L17.164 9.77C16.164 10.564 15.164 11.36 14.164 11.956L12.562 12.752C9.76198 14.146 8.16198 17.328 8.56198 20.512L10.202 28.958C8.80783 29.7105 7.66845 30.86 6.9282 32.2607C6.18795 33.6614 5.88014 35.2503 6.04378 36.8262C6.20743 38.402 6.83515 39.8937 7.84742 41.1125C8.8597 42.3312 10.211 43.222 11.73 43.672L12.134 48.952L12.136 48.98C12.826 56.576 18.646 62 26.102 62H38.076C45.31 62 51.35 56.596 52.04 48.98L52.044 48.934L52.4 43.634C53.9027 43.1614 55.2324 42.2558 56.2226 41.0306C57.2128 39.8055 57.8194 38.3154 57.9663 36.747C58.1132 35.1786 57.794 33.6018 57.0486 32.214C56.3032 30.8263 55.1647 29.6895 53.776 28.946L55.376 20.71C55.976 17.328 54.376 14.146 51.574 12.752ZM48.374 20.77V21.902C48.374 22.89 48.782 23.876 49.378 24.638C49.508 25.678 49.536 26.752 49.452 27.846V27.866L49.306 30.006C49.2736 30.4836 49.4137 30.957 49.7007 31.3401C49.9877 31.7232 50.4025 31.9907 50.87 32.094C51.8021 32.3031 52.6287 32.8387 53.2004 33.604C53.7721 34.3694 54.0511 35.314 53.9871 36.2671C53.9231 37.2203 53.5202 38.1191 52.8514 38.8011C52.1825 39.4832 51.2917 39.9034 50.34 39.986C49.8632 40.0261 49.4165 40.2358 49.0811 40.5771C48.7457 40.9183 48.5438 41.3686 48.512 41.846L48.056 48.642C47.54 54.214 43.206 58 38.076 58H26.1C20.788 58 16.632 54.23 16.12 48.632L15.6 41.834C15.5629 41.3537 15.3538 40.903 15.0109 40.5646C14.6681 40.2262 14.2147 40.0228 13.734 39.992C12.7721 39.9305 11.8648 39.5237 11.1789 38.8465C10.4931 38.1693 10.0748 37.2672 10.0011 36.3062C9.92731 35.3451 10.2031 34.3898 10.7776 33.6159C11.3521 32.842 12.1867 32.3016 13.128 32.094C13.5983 31.9899 14.0153 31.7196 14.3022 31.3327C14.5892 30.9458 14.7269 30.4683 14.69 29.988L14.528 27.866C14.4728 26.9261 14.4996 25.9832 14.608 25.048C15.576 24.252 15.964 23.078 15.964 21.904V20.224C16.5718 18.9001 17.3585 17.6659 18.302 16.556C20.914 15.956 25.636 15.14 32.168 15.14C38.486 15.14 43.11 15.906 45.772 16.496C46.8647 17.7702 47.7448 19.2138 48.374 20.77ZM28.592 41.392L30.572 35.052C31.018 33.65 32.998 33.65 33.424 35.052L35.404 41.392C35.4965 41.6945 35.5165 42.0146 35.4626 42.3263C35.4086 42.638 35.2821 42.9326 35.0933 43.1865C34.9045 43.4403 34.6587 43.6462 34.3756 43.7875C34.0926 43.9288 33.7803 44.0016 33.464 44H30.532C30.2151 44.0033 29.9018 43.9316 29.6179 43.7908C29.334 43.65 29.0874 43.4441 28.8982 43.1898C28.709 42.9355 28.5827 42.64 28.5295 42.3276C28.4762 42.0152 28.4977 41.6946 28.592 41.392ZM31.998 47.792C30.2026 47.8031 28.4309 47.3826 26.832 46.566C26.322 46.306 25.772 46.882 26.094 47.346C26.7405 48.3194 27.6185 49.1172 28.6493 49.6676C29.6801 50.2181 30.8314 50.5041 32 50.5C33.1682 50.5038 34.3191 50.2176 35.3495 49.6672C36.3799 49.1167 37.2577 48.3192 37.904 47.346C38.224 46.864 37.676 46.306 37.166 46.566C35.5677 47.3841 33.7954 47.804 32 47.79M40.916 30.798C43.344 30.798 45.396 32.478 45.97 34.732C46.0069 34.8836 46.0086 35.0416 45.9751 35.1939C45.9416 35.3463 45.8738 35.489 45.7767 35.6111C45.6797 35.7333 45.556 35.8316 45.4151 35.8986C45.2743 35.9657 45.12 35.9997 44.964 35.998H43.364C43.5011 35.5028 43.5217 34.9825 43.4241 34.478C43.3265 33.9734 43.1134 33.4984 42.8015 33.09C42.4896 32.6816 42.0873 32.351 41.6263 32.124C41.1652 31.8971 40.6579 31.78 40.144 31.782C39.7067 31.7799 39.2734 31.8646 38.8692 32.0314C38.465 32.1982 38.098 32.4436 37.7895 32.7534C37.481 33.0633 37.2371 33.4313 37.072 33.8362C36.9069 34.2411 36.824 34.6748 36.828 35.112C36.828 35.426 36.868 35.722 36.948 35.998H36.65C36.5242 35.9988 36.3998 35.9719 36.2856 35.9192C36.1715 35.8665 36.0703 35.7893 35.9893 35.6931C35.9084 35.5968 35.8496 35.484 35.8172 35.3624C35.7849 35.2409 35.7796 35.1138 35.802 34.99C36.0358 33.8065 36.6739 32.7412 37.6068 31.9764C38.5398 31.2117 39.7096 30.7951 40.916 30.798ZM18.03 34.734C18.319 33.5861 18.9901 32.5706 19.9329 31.8547C20.8756 31.1388 22.034 30.765 23.2174 30.7948C24.4008 30.8246 25.5388 31.2562 26.4444 32.0186C27.3499 32.7811 27.969 33.829 28.2 34.99C28.2227 35.1141 28.2177 35.2416 28.1853 35.3635C28.153 35.4855 28.0941 35.5987 28.0129 35.6952C27.9317 35.7917 27.8301 35.8691 27.7155 35.9218C27.6009 35.9745 27.4761 36.0012 27.35 36H27.054C27.134 35.724 27.172 35.428 27.172 35.114C27.172 33.262 25.692 31.784 23.854 31.784C23.3403 31.7824 22.8332 31.8997 22.3724 32.1267C21.9115 32.3538 21.5096 32.6844 21.1979 33.0928C20.8862 33.5011 20.6733 33.9761 20.5758 34.4804C20.4783 34.9848 20.4989 35.5049 20.636 36H19.036C18.88 36.0017 18.7257 35.9677 18.5848 35.9006C18.444 35.8336 18.3203 35.7353 18.2233 35.6131C18.1262 35.491 18.0583 35.3483 18.0248 35.1959C17.9913 35.0436 17.9931 34.8856 18.03 34.734ZM38.23 35.114C38.2298 34.74 38.3412 34.3744 38.55 34.064C38.636 34.284 38.85 34.44 39.098 34.44C39.2248 34.4387 39.348 34.3972 39.4498 34.3215C39.5516 34.2458 39.6268 34.1398 39.6645 34.0187C39.7023 33.8976 39.7007 33.7676 39.66 33.6475C39.6193 33.5273 39.5416 33.4232 39.438 33.35C39.7981 33.2085 40.193 33.1807 40.5694 33.2703C40.9458 33.36 41.2857 33.5627 41.5434 33.8514C41.8012 34.14 41.9643 34.5007 42.0108 34.8848C42.0574 35.2689 41.9852 35.6581 41.804 36H38.45C38.3079 35.7261 38.2326 35.4225 38.23 35.114ZM23.854 33.222C24.1808 33.2211 24.5022 33.3049 24.7871 33.465C25.0719 33.6251 25.3105 33.8563 25.4796 34.1359C25.6487 34.4155 25.7426 34.7341 25.7521 35.0608C25.7617 35.3874 25.6865 35.711 25.534 36H22.176C22.0352 35.7258 21.9612 35.4222 21.96 35.114C21.96 34.77 22.052 34.446 22.214 34.168C22.283 34.2767 22.3857 34.3599 22.5064 34.4048C22.627 34.4497 22.7591 34.4539 22.8824 34.4167C23.0057 34.3795 23.1134 34.303 23.1892 34.1989C23.2649 34.0948 23.3046 33.9687 23.302 33.84C23.3021 33.753 23.2835 33.667 23.2472 33.588C23.2109 33.5089 23.158 33.4386 23.092 33.382C23.3322 33.2765 23.5916 33.222 23.854 33.222ZM17.664 29.082C18.0014 29.4863 18.4847 29.7412 19.0089 29.7914C19.5331 29.8416 20.056 29.683 20.464 29.35L20.478 29.34L20.492 29.328C20.8412 29.0887 21.2162 28.8894 21.61 28.734C22.7159 28.3035 23.9174 28.1791 25.088 28.374C25.6059 28.4439 26.1306 28.3083 26.5498 27.9962C26.969 27.6841 27.2494 27.2203 27.331 26.704C27.4125 26.1878 27.2888 25.6602 26.9862 25.2341C26.6836 24.8079 26.2262 24.5172 25.712 24.424C23.8352 24.1168 21.9103 24.3213 20.14 25.016C19.5945 25.2298 19.0697 25.4929 18.572 25.802C18.3731 25.9261 18.1802 26.0596 17.994 26.202L17.95 26.24L17.932 26.252L17.926 26.258L17.922 26.262H17.92C17.7178 26.4302 17.5507 26.6366 17.4283 26.8694C17.306 27.1023 17.2308 27.357 17.207 27.6189C17.1832 27.8808 17.2114 28.1449 17.2898 28.396C17.3682 28.647 17.4953 28.8802 17.664 29.082ZM45.878 26.262C46.2846 26.6028 46.5391 27.0912 46.5856 27.6196C46.6321 28.1481 46.4668 28.6734 46.126 29.08C45.7852 29.4866 45.2968 29.7411 44.7683 29.7876C44.2399 29.8341 43.7146 29.6688 43.308 29.328C42.9588 29.0887 42.5837 28.8894 42.19 28.734C41.0844 28.3023 39.8826 28.1779 38.712 28.374C38.194 28.4439 37.6693 28.3083 37.2501 27.9962C36.8309 27.6841 36.5505 27.2203 36.469 26.704C36.3874 26.1878 36.5112 25.6602 36.8138 25.2341C37.1164 24.8079 37.5737 24.5172 38.088 24.424C39.9648 24.1168 41.8897 24.3213 43.66 25.016C44.328 25.28 44.856 25.57 45.228 25.802C45.4268 25.9261 45.6197 26.0596 45.806 26.202L45.85 26.24L45.868 26.252L45.874 26.258L45.878 26.262Z" fill="white"/>
</svg>
