<svg width="22" height="22" viewBox="0 0 22 22" fill="none" xmlns="http://www.w3.org/2000/svg">
<g clip-path="url(#clip0_8_182)">
<path d="M2.5789 14.1778L1.41779 19.1889C1.37773 19.3721 1.37911 19.5619 1.42181 19.7445C1.46451 19.9271 1.54746 20.0978 1.66459 20.2442C1.78173 20.3906 1.9301 20.509 2.09886 20.5908C2.26762 20.6725 2.4525 20.7155 2.64001 20.7167C2.72738 20.7255 2.81542 20.7255 2.90279 20.7167L7.94446 19.5556L17.6245 9.91222L12.2222 4.52222L2.5789 14.1778Z" fill="white"/>
<path d="M20.6678 5.08443L17.0622 1.47887C16.8252 1.24302 16.5044 1.11063 16.17 1.11063C15.8356 1.11063 15.5148 1.24302 15.2778 1.47887L13.2733 3.48332L18.6695 8.87943L20.6739 6.87499C20.7912 6.75709 20.8841 6.61722 20.9473 6.46338C21.0105 6.30954 21.0427 6.14475 21.0421 5.97844C21.0416 5.81213 21.0082 5.64756 20.944 5.49416C20.8798 5.34075 20.7859 5.20152 20.6678 5.08443Z" fill="white"/>
</g>
<defs>
<clipPath id="clip0_8_182">
<rect width="22" height="22" fill="white"/>
</clipPath>
</defs>
</svg>
