<svg width="60" height="60" viewBox="0 0 60 60" fill="none" xmlns="http://www.w3.org/2000/svg">
<path d="M17.314 26.858L17.33 26.848C17.4673 26.7691 17.6081 26.6963 17.752 26.63C18.052 26.488 18.492 26.3 19.03 26.128C20.11 25.782 21.54 25.522 23.026 25.784C23.2822 25.8192 23.542 25.7539 23.751 25.6016C23.9601 25.4494 24.102 25.2221 24.147 24.9675C24.192 24.7128 24.1367 24.4507 23.9925 24.236C23.8484 24.0213 23.6267 23.8708 23.374 23.816C21.46 23.476 19.688 23.816 18.422 24.222C17.7453 24.4383 17.0888 24.7134 16.46 25.044C16.4198 25.0662 16.3798 25.0889 16.34 25.112L16.304 25.132L16.292 25.138L16.288 25.14L16.286 25.142C16.0584 25.2783 15.8944 25.4995 15.8299 25.7568C15.7979 25.8842 15.7914 26.0166 15.8106 26.1465C15.8299 26.2765 15.8745 26.4013 15.942 26.514C16.0095 26.6267 16.0985 26.725 16.204 26.8032C16.3095 26.8815 16.4294 26.9382 16.5568 26.9702C16.8141 27.0347 17.0864 26.9943 17.314 26.858ZM20 28.8C20.168 28.8 20.334 28.812 20.5 28.832C21.7983 28.6854 23.1042 29.0316 24.1594 29.802C25.2146 30.5724 25.9421 31.7108 26.198 32.992C26.2203 33.1158 26.2151 33.2429 26.1827 33.3644C26.1504 33.486 26.0916 33.5989 26.0106 33.6951C25.9297 33.7913 25.8285 33.8685 25.7143 33.9212C25.6002 33.9739 25.4758 34.0008 25.35 34H25.054C25.134 33.724 25.172 33.428 25.172 33.114C25.172 31.262 23.692 29.784 21.854 29.784C21.3403 29.7824 20.8332 29.8997 20.3724 30.1267C19.9116 30.3538 19.5096 30.6844 19.1979 31.0928C18.8862 31.5011 18.6733 31.9761 18.5758 32.4805C18.4783 32.9848 18.4989 33.5049 18.636 34H17.036C16.88 34.0017 16.7257 33.9677 16.5849 33.9007C16.444 33.8336 16.3203 33.7353 16.2233 33.6131C16.1262 33.491 16.0584 33.3483 16.0249 33.1959C15.9914 33.0436 15.9931 32.8856 16.03 32.734V32.728L15.85 32.6C15.05 32 14.85 31 16.05 30.2C17.25 29.2 18.6 28.8 20 28.8ZM26.592 39.392L28.574 33.052C29.02 31.65 31 31.65 31.426 33.052L33.406 39.392C33.4985 39.6945 33.5186 40.0146 33.4646 40.3263C33.4106 40.638 33.2842 40.9326 33.0953 41.1865C32.9065 41.4403 32.6607 41.6462 32.3777 41.7875C32.0946 41.9288 31.7823 42.0016 31.466 42H28.534C28.2171 42.0033 27.9039 41.9317 27.6199 41.7908C27.336 41.65 27.0894 41.4441 26.9002 41.1898C26.7111 40.9355 26.5847 40.6401 26.5315 40.3276C26.4783 40.0152 26.4997 39.6946 26.594 39.392M30 44.79C28.2048 44.8017 26.4331 44.3819 24.834 43.566C24.324 43.306 23.774 43.882 24.096 44.346C24.7423 45.3192 25.62 46.1167 26.6505 46.6672C27.6809 47.2176 28.8318 47.5038 30 47.5C31.1682 47.5038 32.3191 47.2176 33.3496 46.6672C34.38 46.1167 35.2577 45.3192 35.904 44.346C36.224 43.864 35.676 43.306 35.166 43.566C33.5677 44.3841 31.7954 44.804 30 44.79ZM39.71 28.86C39.94 28.82 40.17 28.8 40.4 28.8C41.8 28.8 43.15 29.2 44.35 30.2C45.55 31 45.35 32 44.55 32.6L44 32.984C43.9987 33.1187 43.9709 33.2519 43.9181 33.3759C43.8653 33.4999 43.7886 33.6122 43.6924 33.7066C43.5962 33.8009 43.4824 33.8754 43.3574 33.9257C43.2324 33.9761 43.0987 34.0013 42.964 34H41.364C41.5011 33.5048 41.5217 32.9845 41.4241 32.48C41.3265 31.9754 41.1134 31.5004 40.8015 31.092C40.4896 30.6836 40.0873 30.353 39.6263 30.1261C39.1652 29.8991 38.6579 29.7821 38.144 29.784C37.7068 29.7819 37.2735 29.8667 36.8693 30.0334C36.4651 30.2002 36.098 30.4456 35.7895 30.7554C35.481 31.0653 35.2371 31.4333 35.072 31.8382C34.907 32.2431 34.824 32.6768 34.828 33.114C34.828 33.428 34.868 33.724 34.948 34H34.65C34.5243 34.0008 34.3999 33.9739 34.2857 33.9212C34.1715 33.8685 34.0703 33.7913 33.9894 33.6951C33.9084 33.5989 33.8496 33.486 33.8173 33.3644C33.7849 33.2429 33.7797 33.1158 33.802 32.992C34.0618 31.6732 34.8222 30.5063 35.9237 29.7359C37.0251 28.9656 38.3821 28.6517 39.71 28.86Z" fill="white"/>
<path d="M21.854 31.222C22.1808 31.2211 22.5022 31.3049 22.7871 31.465C23.072 31.6251 23.3105 31.8563 23.4796 32.1359C23.6488 32.4155 23.7426 32.7341 23.7522 33.0608C23.7617 33.3874 23.6865 33.711 23.534 34H20.176C20.0353 33.7258 19.9613 33.4222 19.96 33.114C19.96 32.77 20.052 32.446 20.214 32.168C20.283 32.2767 20.3857 32.3599 20.5064 32.4048C20.6271 32.4497 20.7591 32.4539 20.8824 32.4167C21.0057 32.3795 21.1135 32.3031 21.1892 32.1989C21.265 32.0948 21.3046 31.9687 21.302 31.84C21.3022 31.753 21.2835 31.667 21.2472 31.588C21.211 31.5089 21.158 31.4386 21.092 31.382C21.3322 31.2765 21.5917 31.222 21.854 31.222ZM36.23 33.114C36.2298 32.74 36.3413 32.3744 36.55 32.064C36.636 32.284 36.85 32.44 37.098 32.44C37.2249 32.4387 37.348 32.3972 37.4498 32.3215C37.5516 32.2458 37.6268 32.1398 37.6646 32.0187C37.7023 31.8976 37.7008 31.7676 37.6601 31.6475C37.6194 31.5274 37.5416 31.4232 37.438 31.35C37.7982 31.2085 38.193 31.1807 38.5694 31.2703C38.9458 31.36 39.2858 31.5628 39.5435 31.8514C39.8012 32.14 39.9643 32.5007 40.0109 32.8848C40.0575 33.269 39.9853 33.6581 39.804 34H36.45C36.308 33.7261 36.2326 33.4225 36.23 33.114ZM43.714 25.142L43.71 25.138L43.7 25.132L43.664 25.112C43.4825 25.0106 43.2978 24.9152 43.11 24.826C42.6148 24.5905 42.1043 24.3887 41.582 24.222C40.314 23.818 38.542 23.478 36.628 23.816C36.3753 23.8708 36.1536 24.0213 36.0095 24.236C35.8653 24.4507 35.81 24.7128 35.855 24.9675C35.9 25.2221 36.042 25.4494 36.251 25.6016C36.46 25.7539 36.7198 25.8192 36.976 25.784C38.462 25.524 39.89 25.784 40.974 26.128C41.5605 26.3164 42.1288 26.5574 42.672 26.848L42.688 26.858C42.9156 26.9943 43.188 27.0347 43.4453 26.9702C43.7026 26.9056 43.9237 26.7416 44.06 26.514C44.1963 26.2864 44.2367 26.0141 44.1722 25.7568C44.1076 25.4995 43.9416 25.2783 43.714 25.142Z" fill="white"/>
<path d="M18.376 5.964C19.7019 4.11952 21.4475 2.61678 23.4686 1.5798C25.4897 0.542816 27.7284 0.00132202 30 0C32.2716 0.00132202 34.5103 0.542816 36.5314 1.5798C38.5525 2.61678 40.2981 4.11952 41.624 5.964L41.644 5.992C41.6622 5.99711 41.6811 5.9998 41.7 6C45.4923 6.00106 49.1289 7.508 51.8105 10.1895C54.492 12.8711 55.9989 16.5077 56 20.3V20.34C56 22.292 56.566 24.21 57.632 25.844C59.172 28.098 60 31.118 60 33.736C60.0082 35.8719 59.5308 37.9817 58.604 39.906C59.47 41.732 60 43.794 60 46C60 53.746 53.746 60 46 60H14C6.254 60 5.06969e-06 53.746 5.06969e-06 46C5.06969e-06 43.794 0.530005 41.732 1.39601 39.906L1.39401 39.9C0.48198 37.9728 0.00601935 35.8681 5.06969e-06 33.736C-0.0023441 30.9456 0.811764 28.2154 2.34201 25.882L2.35201 25.866L2.364 25.848C3.43215 24.2096 4.00058 22.2958 4.00001 20.34V20.3C4.00107 16.5077 5.50801 12.8711 8.18955 10.1895C10.8711 7.508 14.5077 6.00106 18.3 6C18.3162 5.99892 18.3319 5.99413 18.346 5.986C18.3539 5.98219 18.3612 5.97749 18.368 5.972L18.374 5.968L18.376 5.964ZM32.756 21.168C30.2595 21.1717 27.7995 20.5685 25.5878 19.4104C23.3761 18.2523 21.4791 16.574 20.06 14.52L19.764 15.22C18.8362 17.5021 17.0659 19.3397 14.82 20.352C14.7747 20.3728 14.7279 20.3902 14.68 20.404C13.552 20.728 12.814 21.598 12.352 23.004C11.884 24.434 11.758 26.28 11.806 28.246C11.8116 28.4632 11.7464 28.6764 11.6201 28.8532C11.4938 29.03 11.3133 29.1609 11.106 29.226C10.0105 29.5707 9.06706 30.2818 8.43399 31.24C7.80092 32.1981 7.51683 33.3449 7.62943 34.4878C7.74202 35.6307 8.24445 36.7 9.05234 37.5162C9.86022 38.3324 10.9243 38.8457 12.066 38.97C12.2694 38.9916 12.4614 39.0751 12.6159 39.2092C12.7704 39.3433 12.88 39.5216 12.93 39.72C14.876 47.48 21.742 52.5 29.976 52.5C38.264 52.5 45.166 47.414 47.06 39.564C47.1123 39.3467 47.2358 39.1533 47.4109 39.0144C47.586 38.8756 47.8026 38.7994 48.026 38.798C49.2871 38.7938 50.4999 38.3132 51.4217 37.4526C52.3434 36.592 52.9059 35.4148 52.9964 34.157C53.087 32.8992 52.6989 31.6537 51.9099 30.6699C51.121 29.6861 49.9894 29.0368 48.742 28.852C48.4979 28.8157 48.2759 28.6904 48.1186 28.5003C47.9613 28.3101 47.8799 28.0686 47.89 27.822L48 25.14C47.902 23.12 47.148 22.192 46.488 21.734C45.9788 21.3857 45.3806 21.19 44.764 21.17L32.756 21.168Z" fill="white"/>
</svg>
